# xmcd
#
# Track frame offsets:
#	183
#	10658
#	21795
#	38358
#	49783
#	61770
#	72883
#	84208
#	95445
#	109508
#	120158
#	134308
#	150395
#	160033
#	173158
#	181408
#	193908
#	204058
#	213808
#	224295
#
# Disc length: 3233 seconds
#
# Revision: 0
# Processed by: cddbd v1.5.1PL0 Copyright (c) Steve Scherf et al.
# Submitted via: audiograbber 1.81.00
#
DISCID=ed0c9f14
DTITLE=EDOARDO VIANELLO - 20 GRANDI SUCCESSI
DYEAR=1990
DGENRE=POP
TTITLE0=SIAMO DUE ESQUIMESI
TTITLE1=IL CAPELLO
TTITLE2=UMILMENTE TI CHIEDO PERDONO
TTITLE3=GUARDA COME DONDOLO
TTITLE4=PINNE, FUCILE E OCCHIALI
TTITLE5=TI AMO PERCHE'
TTITLE6=ABBRONZATISSIMA
TTITLE7=IL CICERONE
TTITLE8=MA GUARDATELA
TTITLE9=PRENDIAMO IN AFFITTO UNA BARCA
TTITLE10=I WATUSSI
TTITLE11=O MIO SIGNORE
TTITLE12=TREMARELLA
TTITLE13=HULLY GULLY IN DIECI
TTITLE14=SUL CUCUZZOLO
TTITLE15=DA MOLTO LONTANO
TTITLE16=IL PEPERONE
TTITLE17=CARTA VETRATA
TTITLE18=POVERO LUI
TTITLE19=NASCE UNA VITA
EXTD=
EXTT0=
EXTT1=
EXTT2=
EXTT3=
EXTT4=
EXTT5=
EXTT6=
EXTT7=
EXTT8=
EXTT9=
EXTT10=
EXTT11=
EXTT12=
EXTT13=
EXTT14=
EXTT15=
EXTT16=
EXTT17=
EXTT18=
EXTT19=
PLAYORDER=
